<svg width="1200" height="1200" viewBox="0 0 1200 1200" fill="none" xmlns="http://www.w3.org/2000/svg">
<path d="M590.804 700.119C563.07 653.819 530.15 610.457 519.301 556.829C510.239 511.998 514.327 468.812 543.3 430.724C549.867 422.087 549.017 414.512 541.955 408.919C535.637 403.91 527.814 405.061 521.106 413.043C503.212 434.335 493.407 459.308 489.425 486.6C487.903 497.024 487.513 507.626 486.505 519.236C480.912 513.29 475.602 507.679 470.328 502.051C457.089 487.856 441.549 476.848 423.762 469.131C419.78 467.396 415.39 466.051 411.09 465.733C403.638 465.184 398.594 469.733 396.453 476.281C394.187 483.219 398.187 489.095 404.187 491.414C448.629 508.652 472.699 545.466 493.885 584.758C517.212 628.032 539.513 671.872 562.698 715.216C581.388 750.154 592.397 786.932 591.76 826.844C591.707 830.33 591.406 833.817 591.158 838.649C586.946 838.649 583.265 838.649 579.583 838.649C556.309 838.613 533.035 838.489 509.761 838.596C505 838.613 502.469 837.728 501.513 832.206C495.443 797.516 477.142 769.428 453.178 744.561C438.664 729.499 423.532 714.986 409.621 699.376C359.444 643.146 336.559 577.572 342.028 501.962C350.4 385.999 441.461 281.292 562.698 262.779C594.981 257.859 626.562 258.555 658.544 265.759C648.774 276.98 639.051 287.257 629.777 298.885C606.078 328.601 592.946 363.114 592.273 400.654C590.68 489.679 591.158 578.758 590.804 667.801C590.769 678.562 590.804 689.341 590.804 700.102V700.119Z" fill="#0080FF"/>
<path d="M698.867 838.322H620.514V676.412C648.39 674.412 673.239 664.696 694.938 647.191C711.734 633.652 724.743 616.926 733.451 597.263C735.539 592.555 735.769 585.422 733.716 580.821C729.345 571.051 716.867 571.015 710.902 580.077C705.256 588.679 700.725 598.095 694.46 606.183C675.982 630.112 651.965 644.678 619.93 647.368C619.93 626.165 619.523 605.316 620.072 584.484C620.426 570.998 621.116 557.352 623.523 544.131C627.558 521.919 639.133 503.052 653.735 484.521C685.168 502.68 719.716 506.131 755.061 502.379C790.795 498.591 821.892 483.176 850.741 459.583C852.901 470.432 855.502 480.078 856.653 489.884C864.918 560.325 849.149 624.59 805.202 680.766C790.565 699.474 774.229 716.996 757.557 733.952C728.619 763.385 703.203 794.482 698.849 838.322H698.867Z" fill="#0080FF"/>
<path d="M671.074 463.239C690.808 441.381 711.905 425.682 734.772 412.248C736.454 411.257 739.268 411.824 741.462 412.213C773.816 417.965 805.373 415.08 836.098 403.523C839.904 402.089 843.833 400.408 847.019 397.948C852.151 393.965 855.921 388.62 852.328 381.877C848.824 375.311 842.93 371.966 835.337 373.983C825.125 376.709 815.161 380.567 804.842 382.762C795.143 384.815 785.126 385.346 774.365 384.532C780.276 379.576 786.081 374.497 792.117 369.7C818.824 348.55 838.683 322.356 850.629 290.338C852.063 286.48 853.479 282.568 854.364 278.568C856.204 270.197 852.47 263.542 844.859 261.117C836.541 258.462 832.276 263.277 828.842 269.807C820.382 285.878 813.001 302.674 803.072 317.789C787.745 341.116 763.975 355.382 741.285 371.205C741.285 356.178 741.108 341.877 741.356 327.594C741.516 318.462 742.613 309.347 742.701 300.214C742.79 291.294 738.241 286.161 730.701 285.506C723.109 284.852 716.613 289.967 715.834 298.657C713.056 329.683 707.569 360.674 713.675 392.249C675.003 413.275 645.446 443.823 620.066 482.336C620.756 435.434 613.836 390.266 633.287 347.948C652.844 305.4 684.72 275.099 728.648 258.392C744.843 252.232 761.568 247.401 778.223 242.587C820.559 230.339 857.904 210.516 886.965 173.455C890.912 188.64 895.85 203.631 898.593 219.029C907.213 267.1 905.655 314.887 888.77 361.063C862.523 432.85 793.179 483.646 715.25 473.947C700.95 472.159 687.056 467.203 671.056 463.221L671.074 463.239Z" fill="#0080FF"/>
<path d="M541.086 984.321C535.316 984.321 529.29 984.321 523.632 984.321C510.541 984.321 501.813 973.429 501.813 962.537C501.813 951.646 510.234 942.968 523.632 942.932C573.967 942.756 626.023 942.756 676.359 942.932C689.45 942.932 698.177 951.646 698.177 962.537C698.177 973.429 689.45 984.321 676.359 984.321C675.775 984.374 674.812 984.268 674.177 984.321C663.506 984.268 667.135 984.321 658.904 984.321C649.632 1007.71 634.904 1025.71 599.995 1025.71C565.086 1025.71 550.307 1007.79 541.086 984.321Z" fill="#0080FF"/>
<path d="M599.347 912.143C575.541 912.143 551.639 912.254 527.691 912.254C522.269 912.184 516.563 911.314 511.812 909.002C503.918 905.171 500.227 894.881 502.452 886.179C504.748 877.177 510.876 872.235 519.971 871.229C524.634 870.717 529.367 870.806 534.064 870.806C581.094 870.806 628.141 870.841 675.171 870.929C689.369 870.947 697.758 878.29 698.164 890.786C698.553 902.771 689.506 912.06 675.731 912.254C649.607 912.254 624.57 912.254 599.534 912.143H599.347Z" fill="#0080FF"/>
</svg>
